<svg width="16" height="16" viewBox="0 0 16 16" fill="none" xmlns="http://www.w3.org/2000/svg">
    <mask id="mask0_190_31" style="mask-type:alpha" maskUnits="userSpaceOnUse" x="0" y="0" width="16" height="16">
        <rect width="16" height="16" transform="matrix(1 0 0 -1 0 16)" fill="#D9D9D9"/>
    </mask>
    <g mask="url(#mask0_190_31)">
        <path d="M1.24365 2.3334L8.00002 14L14.7564 2.3334H1.24365ZM2.96669 3.33338H13.0334L8.00002 12L2.96669 3.33338ZM8.00002 4.12827C8.15259 4.12827 8.28047 4.17987 8.38367 4.28307C8.48687 4.38627 8.53847 4.51415 8.53847 4.66672C8.53847 4.81928 8.48687 4.94717 8.38367 5.05037C8.28047 5.15357 8.15259 5.20517 8.00002 5.20517C7.84745 5.20517 7.71957 5.15357 7.61637 5.05037C7.51317 4.94717 7.46157 4.81928 7.46157 4.66672C7.46157 4.51415 7.51317 4.38627 7.61637 4.28307C7.71957 4.17987 7.84745 4.12827 8.00002 4.12827ZM7.50004 5.87183H8.5V9.20517H7.50004V5.87183Z" fill="#1C1B1F"/>
    </g>
</svg>
