<svg width="20" height="21" viewBox="0 0 20 21" fill="none" xmlns="http://www.w3.org/2000/svg">
    <g clip-path="url(#clip0_39_13)">
        <path d="M7.75054 10.5C7.75054 9.25741 8.75763 8.24982 10.0003 8.24982C11.2429 8.24982 12.2505 9.25741 12.2505 10.5C12.2505 11.7426 11.2429 12.7502 10.0003 12.7502C8.75763 12.7502 7.75054 11.7426 7.75054 10.5ZM6.53409 10.5C6.53409 12.4143 8.08589 13.966 10.0003 13.966C11.9146 13.966 13.4665 12.4143 13.4665 10.5C13.4665 8.5857 11.9146 7.03396 10.0003 7.03396C8.08589 7.03396 6.53409 8.5857 6.53409 10.5ZM12.7936 6.89653C12.7935 7.34388 13.156 7.70667 13.6033 7.70685C14.0507 7.70703 14.4135 7.34452 14.4137 6.89717C14.4139 6.44982 14.0514 6.08703 13.604 6.08685C13.1568 6.08706 12.794 6.44939 12.7936 6.89653ZM7.27316 15.9943C6.61504 15.9644 6.25733 15.8547 6.01961 15.7621C5.70445 15.6395 5.47959 15.4933 5.24317 15.2572C5.00674 15.0212 4.8604 14.7965 4.73825 14.4814C4.64558 14.2438 4.53595 13.886 4.50604 13.2279C4.47331 12.5164 4.46678 12.3026 4.46678 10.5001C4.46678 8.69748 4.47385 8.48434 4.50604 7.77224C4.53601 7.11415 4.64644 6.75704 4.73825 6.51874C4.86094 6.2036 5.00707 5.97874 5.24317 5.74233C5.47926 5.50592 5.70391 5.35958 6.01961 5.23743C6.25722 5.14477 6.61504 5.03515 7.27316 5.00523C7.98469 4.97251 8.19843 4.96597 10.0003 4.96597C11.8021 4.96597 12.0161 4.97305 12.7282 5.00523C13.3863 5.0352 13.7434 5.14563 13.9817 5.23743C14.2969 5.35958 14.5218 5.50624 14.7582 5.74233C14.9946 5.97842 15.1404 6.2036 15.2631 6.51874C15.3558 6.75634 15.4654 7.11415 15.4953 7.77224C15.528 8.48434 15.5346 8.69748 15.5346 10.5001C15.5346 12.3026 15.528 12.5158 15.4953 13.2279C15.4653 13.886 15.3552 14.2437 15.2631 14.4814C15.1404 14.7965 14.9943 15.0214 14.7582 15.2572C14.5221 15.4931 14.2969 15.6395 13.9817 15.7621C13.7441 15.8548 13.3863 15.9644 12.7282 15.9943C12.0167 16.0271 11.8029 16.0336 10.0003 16.0336C8.19762 16.0336 7.98448 16.0271 7.27316 15.9943ZM7.21727 3.79088C6.49866 3.8236 6.00762 3.93754 5.57879 4.1044C5.13468 4.27672 4.75871 4.50789 4.38302 4.88297C4.00733 5.25806 3.77674 5.6346 3.60442 6.0787C3.43755 6.50778 3.3236 6.99853 3.29088 7.71711C3.25761 8.43682 3.25 8.66692 3.25 10.5C3.25 12.3331 3.25761 12.5632 3.29088 13.2829C3.3236 14.0015 3.43755 14.4922 3.60442 14.9213C3.77674 15.3651 4.00738 15.7421 4.38302 16.117C4.75866 16.4919 5.13468 16.7228 5.57879 16.8956C6.00843 17.0625 6.49866 17.1764 7.21727 17.2091C7.93739 17.2418 8.16711 17.25 10.0003 17.25C11.8334 17.25 12.0635 17.2424 12.7833 17.2091C13.5019 17.1764 13.9927 17.0625 14.4218 16.8956C14.8656 16.7228 15.2418 16.4921 15.6175 16.117C15.9932 15.7419 16.2233 15.3651 16.3961 14.9213C16.563 14.4922 16.6775 14.0015 16.7097 13.2829C16.7424 12.5626 16.75 12.3331 16.75 10.5C16.75 8.66692 16.7424 8.43682 16.7097 7.71711C16.6769 6.99848 16.563 6.50751 16.3961 6.0787C16.2233 5.63487 15.9926 5.25865 15.6175 4.88297C15.2424 4.5073 14.8656 4.27672 14.4223 4.1044C13.9927 3.93754 13.5019 3.82306 12.7838 3.79088C12.0641 3.75815 11.834 3.75 10.0008 3.75C8.16765 3.75 7.93739 3.75761 7.21727 3.79088Z" fill="#30343D"/>
    </g>
    <defs>
        <clipPath id="clip0_39_13">
            <rect width="13.5" height="13.5" fill="white" transform="translate(3.25 3.75)"/>
        </clipPath>
    </defs>
</svg>
