<svg width="20" height="21" viewBox="0 0 20 21" fill="none" xmlns="http://www.w3.org/2000/svg">
    <mask id="mask0_16_187" style="mask-type:alpha" maskUnits="userSpaceOnUse" x="0" y="0" width="20" height="21">
        <rect width="20" height="20" transform="matrix(1 0 0 -1 0 20.5)" fill="#D9D9D9"/>
    </mask>
    <g mask="url(#mask0_16_187)">
        <path d="M9.0064 6.71794H5.83333C4.78697 6.71794 3.89504 7.08664 3.15754 7.82404C2.42004 8.56145 2.05129 9.45327 2.05129 10.4995C2.05129 11.5457 2.42004 12.4377 3.15754 13.1754C3.89504 13.9131 4.78697 14.282 5.83333 14.282H9.0064V13.032H5.83333C5.13354 13.032 4.53658 12.785 4.04246 12.2908C3.54833 11.7967 3.30127 11.1998 3.30127 10.5C3.30127 9.80017 3.54833 9.20321 4.04246 8.70909C4.53658 8.21496 5.13354 7.9679 5.83333 7.9679H9.0064V6.71794ZM6.87502 9.87498V11.1249H13.125V9.87498H6.87502ZM10.9936 6.71794V7.9679H14.1667C14.8665 7.9679 15.4634 8.21496 15.9575 8.70909C16.4517 9.20321 16.6987 9.80017 16.6987 10.5C16.6987 11.1998 16.4517 11.7967 15.9575 12.2908C15.4634 12.785 14.8665 13.032 14.1667 13.032H10.9936V14.282H14.1667C15.213 14.282 16.105 13.9133 16.8425 13.1759C17.5799 12.4385 17.9487 11.5467 17.9487 10.5004C17.9487 9.45418 17.5799 8.56221 16.8425 7.8245C16.105 7.08679 15.213 6.71794 14.1667 6.71794H10.9936Z" fill="#30343D"/>
    </g>
</svg>
