<svg width="14" height="17" viewBox="0 0 14 17" fill="none" xmlns="http://www.w3.org/2000/svg">
    <g clip-path="url(#clip0_1_32)">
        <path d="M8.10067 0.5C8.10067 0.5 3.08335 1.63274 2.40001 5.98519C1.9937 8.93401 6.77093 8.33686 6.77093 8.33686C6.77093 8.33686 5.18878 9.24798 2.97254 9.27876C0.768615 9.22335 -0.000911671 7.81974 -0.000911671 6.78549C-0.000911671 6.78549 -0.0809425 5.9975 0.811709 4.72932C1.57508 3.60273 3.07104 2.2299 5.58893 1.20181C6.67858 0.770873 8.09451 0.5 8.09451 0.5L8.10067 0.5Z" fill="#30343D"/>
        <path d="M4.72797 6.52076C4.72797 6.52076 6.9319 5.46805 9.62216 5.48036C12.3063 5.49267 13.0512 6.95785 13.0512 8.0475C13.0512 9.13715 12.4786 10.3191 11.2351 11.6058C9.99154 12.8924 8.10158 14.3515 5.40516 15.435C3.19507 16.3338 0.449402 16.5 0.449402 16.5C0.449402 16.5 4.54329 15.2564 7.68296 11.9936C10.8165 8.73084 9.25279 7.3457 8.87726 7.00095C8.50173 6.6562 7.63986 6.0098 4.73413 6.52076H4.72797Z" fill="#30343D"/>
        <path d="M10.9653 3.75764C11.7548 3.27609 12.0547 2.32803 11.6351 1.6401C11.2155 0.952163 10.2353 0.784857 9.4458 1.26641C8.65627 1.74796 8.35638 2.69602 8.77597 3.38395C9.19555 4.07189 10.1757 4.23919 10.9653 3.75764Z" fill="#30343D"/>
    </g>
    <defs>
        <clipPath id="clip0_1_32">
            <rect width="13.045" height="16" fill="white" transform="translate(0 0.5)"/>
        </clipPath>
    </defs>
</svg>
