<?xml version="1.0" encoding="utf-8"?>
<!-- Generator: Adobe Illustrator 27.0.0, SVG Export Plug-In . SVG Version: 6.00 Build 0)  -->
<svg version="1.1" id="레이어_1" xmlns="http://www.w3.org/2000/svg" xmlns:xlink="http://www.w3.org/1999/xlink" x="0px"
	 y="0px" width="21px" height="21px" viewBox="0 0 21 21" style="enable-background:new 0 0 21 21;" xml:space="preserve">
<style type="text/css">
	.st0{fill:#D9D9D9;filter:url(#Adobe_OpacityMaskFilter);}
	.st1{mask:url(#mask0_39_86_00000070090932526189997250000017641687833562329218_);}
	.st2{fill:#30343D;}
</style>
<defs>
	<filter id="Adobe_OpacityMaskFilter" filterUnits="userSpaceOnUse" x="2.3" y="6.3" width="16.7" height="8.3">
		<feColorMatrix  type="matrix" values="1 0 0 0 0  0 1 0 0 0  0 0 1 0 0  0 0 0 1 0"/>
	</filter>
</defs>
<mask maskUnits="userSpaceOnUse" x="2.3" y="6.3" width="16.7" height="8.3" id="mask0_39_86_00000070090932526189997250000017641687833562329218_">
	<rect x="0.7" y="0.5" class="st0" width="20" height="20"/>
</mask>
<g class="st1">
	<path class="st2" d="M9.8,14.7H6.5c-1.2,0-2.1-0.4-2.9-1.2s-1.2-1.8-1.2-2.9c0-1.2,0.4-2.1,1.2-2.9s1.8-1.2,2.9-1.2h3.3V8H6.5
		C5.8,8,5.2,8.2,4.7,8.7S4,9.8,4,10.5c0,0.7,0.2,1.3,0.7,1.8S5.8,13,6.5,13h3.3V14.7z M7.3,11.3V9.7H14v1.7H7.3z M11.5,14.7V13h3.3
		c0.7,0,1.3-0.2,1.8-0.7c0.5-0.5,0.7-1.1,0.7-1.8c0-0.7-0.2-1.3-0.7-1.8C16.1,8.2,15.5,8,14.8,8h-3.3V6.3h3.3c1.2,0,2.1,0.4,2.9,1.2
		S19,9.3,19,10.5c0,1.2-0.4,2.1-1.2,2.9s-1.8,1.2-2.9,1.2H11.5z"/>
</g>
</svg>
