<svg width="53" height="64" viewBox="0 0 53 64" fill="none" xmlns="http://www.w3.org/2000/svg">
<g clip-path="url(#clip0_1_74)">
<path d="M33.2225 0C33.2225 0 13.1532 4.53097 10.4199 21.9407C8.79464 33.7361 27.9035 31.3474 27.9035 31.3474C27.9035 31.3474 21.5749 34.9919 12.71 35.115C3.89429 34.8934 0.816178 29.279 0.816178 25.142C0.816178 25.142 0.496054 21.99 4.06666 16.9173C7.12015 12.4109 13.104 6.91958 23.1756 2.80723C27.5342 1.08349 33.1979 0 33.1979 0L33.2225 0Z" fill="white"/>
<path d="M19.7317 24.0831C19.7317 24.0831 28.5474 19.8723 39.3085 19.9215C50.0449 19.9708 53.0245 25.8315 53.0245 30.1901C53.0245 34.5487 50.7344 39.2766 45.7602 44.4232C40.786 49.5698 33.2261 55.4059 22.4404 59.7399C13.6001 63.3351 2.61743 64 2.61743 64C2.61743 64 18.993 59.0258 31.5517 45.9746C44.0857 32.9234 37.831 27.3828 36.3289 26.0038C34.8268 24.6249 31.3793 22.0392 19.7563 24.0831H19.7317Z" fill="white"/>
<path d="M44.6809 13.0306C47.839 11.1044 49.0386 7.31219 47.3602 4.56045C45.6819 1.80871 41.7612 1.13949 38.603 3.06569C35.4449 4.9919 34.2453 8.78413 35.9237 11.5359C37.602 14.2876 41.5228 14.9568 44.6809 13.0306Z" fill="white"/>
</g>
<defs>
<clipPath id="clip0_1_74">
<rect width="52.1801" height="64" fill="white" transform="translate(0.819824)"/>
</clipPath>
</defs>
</svg>
