<svg width="36" height="44" viewBox="0 0 36 44" fill="none" xmlns="http://www.w3.org/2000/svg">
<g clip-path="url(#clip0_315_16)">
<path d="M22.2804 0C22.2804 0 8.48278 3.11504 6.6036 15.0843C5.48624 23.1935 18.6236 21.5514 18.6236 21.5514C18.6236 21.5514 14.2727 24.0569 8.17805 24.1416C2.11726 23.9892 0.00105964 20.1293 0.00105964 17.2851C0.00105964 17.2851 -0.219025 15.1181 2.23576 11.6306C4.33503 8.53251 8.44892 4.75721 15.3731 1.92997C18.3697 0.744902 22.2635 0 22.2635 0L22.2804 0Z" fill="#30343D"/>
<path d="M13.0019 16.5571C13.0019 16.5571 19.0627 13.6622 26.4609 13.696C33.8422 13.7299 35.8907 17.7591 35.8907 20.7557C35.8907 23.7522 34.3163 27.0027 30.8965 30.541C27.4767 34.0793 22.2793 38.0916 14.8642 41.0712C8.78643 43.5429 1.23584 44 1.23584 44C1.23584 44 12.494 40.5802 21.1281 31.6075C29.7453 22.6349 25.4451 18.8257 24.4124 17.8776C23.3797 16.9296 21.0096 15.152 13.0188 16.5571H13.0019Z" fill="#30343D"/>
<path d="M30.1544 8.95855C32.3256 7.63428 33.1504 5.02713 31.9965 3.13531C30.8426 1.24349 28.1471 0.783396 25.9759 2.10766C23.8047 3.43193 22.98 6.03909 24.1339 7.9309C25.2877 9.82272 27.9832 10.2828 30.1544 8.95855Z" fill="#30343D"/>
</g>
<defs>
<clipPath id="clip0_315_16">
<rect width="35.8738" height="44" fill="white"/>
</clipPath>
</defs>
</svg>
